<?xml version="1.0" encoding="UTF-8"?>
<svg width="1477px" height="500px" viewBox="0 0 1477 500" version="1.1" xmlns="http://www.w3.org/2000/svg" xmlns:xlink="http://www.w3.org/1999/xlink">
    <!-- Generator: Sketch 40.3 (33839) - http://www.bohemiancoding.com/sketch -->
    <title>app-store</title>
    <desc>Created with Sketch.</desc>
    <defs></defs>
    <g id="Page-1" stroke="none" stroke-width="1" fill="none" fill-rule="evenodd">
        <g id="Group">
            <rect id="background" fill="#000000" x="0" y="0" width="1477" height="500" rx="60"></rect>
            <path d="M323.340766,238.55423 C323.018956,202.788858 352.625537,185.388888 353.979361,184.578813 C337.211916,160.132299 311.22293,156.792126 302.090165,156.5258 C280.262524,154.228738 259.089602,169.586874 247.970488,169.586874 C236.629437,169.586874 219.50689,156.747738 201.052712,157.125034 C177.305304,157.491232 155.089271,171.240316 142.904853,192.590789 C117.759234,236.124005 136.513028,300.097746 160.60444,335.286078 C172.655695,352.530691 186.737686,371.761653 205.169669,371.084741 C223.202164,370.352344 229.937994,359.588332 251.699053,359.588332 C273.260368,359.588332 279.585612,371.084741 298.383794,370.640864 C317.736822,370.352344 329.92124,353.340766 341.550811,335.940796 C355.477446,316.210473 361.070293,296.735379 361.292231,295.736657 C360.848355,295.592397 323.718062,281.42163 323.340766,238.55423" id="Fill-2" fill="#FFFFFF"></path>
            <path d="M287.830624,133.377626 C297.529331,121.248693 304.165289,104.747573 302.323201,88.0023216 C288.285597,88.6237491 270.73027,97.7121262 260.620977,109.574733 C251.67686,120.028032 243.687077,137.161675 245.751104,153.274403 C261.519827,154.450676 277.710233,145.317911 287.830624,133.377626" id="Fill-3" fill="#FFFFFF"></path>
            <path d="M584.528963,368.610128 L559.327859,368.610128 L545.523291,325.232269 L497.54021,325.232269 L484.390361,368.610128 L459.855071,368.610128 L507.405372,220.932322 L536.767821,220.932322 L584.528963,368.610128 L584.528963,368.610128 L584.528963,368.610128 Z M541.361946,307.033321 L528.877911,268.482622 C527.557378,264.532119 525.071668,255.255094 521.431878,240.651548 L520.988001,240.651548 C519.523208,246.932404 517.181758,256.209429 513.974748,268.482622 L501.701555,307.033321 L541.361946,307.033321 L541.361946,307.033321 L541.361946,307.033321 Z" id="Fill-4" fill="#FFFFFF"></path>
            <path d="M706.572885,314.057671 C706.572885,332.167844 701.65695,346.48287 691.813982,356.991653 C683.003028,366.346356 672.050368,371.018159 658.989294,371.018159 C644.885109,371.018159 634.742524,365.991255 628.583734,355.904155 L628.583734,411.777145 L604.925101,411.777145 L604.925101,297.123772 C604.925101,285.749429 604.625485,274.086567 604.048445,262.124087 L624.855169,262.124087 L626.175702,279.013599 L626.619579,279.013599 C634.509489,266.285432 646.483065,259.926897 662.551405,259.926897 C675.113118,259.926897 685.599707,264.88722 693.988978,274.818963 C702.367153,284.7729 706.572885,297.845071 706.572885,314.057671 L706.572885,314.057671 L706.572885,314.057671 Z M682.470376,314.923231 C682.470376,304.558708 680.140023,296.01408 675.457122,289.289346 C670.341443,282.28719 663.472449,278.769467 654.86124,278.769467 C649.02426,278.769467 643.719932,280.722524 638.981548,284.584252 C634.232066,288.457077 631.124929,293.52837 629.671232,299.820323 C628.938835,302.738813 628.572637,305.124651 628.572637,307.011127 L628.572637,324.788392 C628.572637,332.511848 630.947378,339.047934 635.69686,344.396649 C640.446341,349.723171 646.616228,352.397528 654.206521,352.397528 C663.117348,352.397528 670.052923,348.946386 675.013246,342.099587 C679.984666,335.230594 682.470376,326.175507 682.470376,314.923231 L682.470376,314.923231 L682.470376,314.923231 Z" id="Fill-5" fill="#FFFFFF"></path>
            <path d="M829.049587,314.057671 C829.049587,332.167844 824.133651,346.48287 814.290684,356.991653 C805.468633,366.346356 794.52707,371.018159 781.454899,371.018159 C767.361811,371.018159 757.219226,365.991255 751.049339,355.904155 L751.049339,411.777145 L727.390706,411.777145 L727.390706,297.123772 C727.390706,285.749429 727.091089,274.086567 726.51405,262.124087 L747.320774,262.124087 L748.641307,279.013599 L749.085184,279.013599 C756.963997,266.285432 768.937573,259.926897 785.01701,259.926897 C797.567626,259.926897 808.065312,264.88722 816.46568,274.818963 C824.832757,284.7729 829.049587,297.845071 829.049587,314.057671 L829.049587,314.057671 L829.049587,314.057671 Z M804.93598,314.923231 C804.93598,304.558708 802.59453,296.01408 797.91163,289.289346 C792.807047,282.28719 785.949151,278.769467 777.337941,278.769467 C771.500962,278.769467 766.196634,280.722524 761.436056,284.584252 C756.697671,288.457077 753.590533,293.52837 752.136837,299.820323 C751.415537,302.738813 751.027145,305.124651 751.027145,307.011127 L751.027145,324.788392 C751.027145,332.511848 753.412983,339.047934 758.14027,344.396649 C762.889752,349.712074 769.059639,352.397528 776.672126,352.397528 C785.59405,352.397528 792.529624,348.946386 797.47885,342.099587 C802.45027,335.230594 804.93598,326.175507 804.93598,314.923231 L804.93598,314.923231 L804.93598,314.923231 Z" id="Fill-6" fill="#FFFFFF"></path>
            <path d="M965.985575,327.196424 C965.985575,339.758137 961.602292,349.9784 952.857919,357.86831 C943.247986,366.479519 929.831811,370.796221 912.631585,370.796221 C896.740796,370.796221 884.001533,367.733471 874.3916,361.596875 L879.862382,341.877648 C890.238002,348.014245 901.634538,351.088092 914.040894,351.088092 C922.962817,351.088092 929.898392,349.068452 934.847618,345.062464 C939.819038,341.034282 942.315845,335.67447 942.315845,328.971931 C942.315845,322.968497 940.251818,317.930496 936.168152,313.835733 C932.073388,309.763163 925.304267,305.945823 915.805304,302.46139 C889.949482,292.818167 877.010473,278.702885 877.010473,260.159932 C877.010473,248.042096 881.582404,238.12145 890.692975,230.364703 C899.814643,222.619053 911.910285,218.746228 926.957708,218.746228 C940.396078,218.746228 951.59287,221.087678 960.481503,225.759482 L954.544651,245.045928 C946.177573,240.518385 936.734095,238.254613 926.169827,238.254613 C917.824944,238.254613 911.266664,240.307543 906.594861,244.39121 C902.655455,248.042096 900.646912,252.491961 900.646912,257.774095 C900.646912,263.599978 902.921781,268.438234 907.460421,272.222284 C911.38873,275.728911 918.55734,279.535154 928.921863,283.61882 C941.638933,288.745597 950.971443,294.71574 956.963779,301.573636 C962.989406,308.431533 965.985575,316.987258 965.985575,327.196424" id="Fill-7" fill="#FFFFFF"></path>
            <path d="M1044.40751,279.879159 L1018.32975,279.879159 L1018.32975,331.579707 C1018.32975,344.729557 1022.92387,351.287836 1032.13431,351.287836 C1036.36224,351.287836 1039.86887,350.932735 1042.6431,350.189241 L1043.29781,368.155154 C1038.63711,369.89737 1032.50051,370.774027 1024.91022,370.774027 C1015.55552,370.774027 1008.26484,367.911022 1002.98271,362.218302 C997.722765,356.514485 995.092795,346.960038 995.092795,333.510571 L995.092795,279.834771 L979.568204,279.834771 L979.568204,262.0797 L995.092795,262.0797 L995.092795,242.582412 L1018.32975,235.569159 L1018.32975,262.0797 L1044.40751,262.0797 L1044.40751,279.879159" id="Fill-8" fill="#FFFFFF"></path>
            <path d="M1161.83511,314.490451 C1161.83511,330.858407 1157.16331,344.296777 1147.8086,354.80556 C1138.03222,365.613959 1125.02663,371.018159 1108.81403,371.018159 C1093.16737,371.018159 1080.72772,365.835898 1071.4507,355.471375 C1062.17367,345.106852 1057.53516,332.034681 1057.53516,316.265958 C1057.53516,299.764838 1062.34013,286.24879 1071.88348,275.740008 C1081.44902,265.231225 1094.34364,259.960188 1110.55624,259.960188 C1126.1918,259.960188 1138.73132,265.164643 1148.24138,275.518069 C1157.31866,285.582975 1161.83511,298.555274 1161.83511,314.490451 L1161.83511,314.490451 L1161.83511,314.490451 Z M1137.31092,315.0342 C1137.31092,305.280008 1135.2025,296.91293 1130.97458,289.910774 C1126.01425,281.454921 1118.90113,277.238092 1109.71288,277.238092 C1100.24721,277.238092 1092.95653,281.454921 1088.0184,289.910774 C1083.76828,296.91293 1081.67096,305.424268 1081.67096,315.478077 C1081.67096,325.243366 1083.76828,333.632637 1088.0184,340.601503 C1093.13408,349.068452 1100.2694,353.296379 1109.52423,353.296379 C1118.55712,353.296379 1125.64805,348.96858 1130.78593,340.401758 C1135.12482,333.233148 1137.31092,324.810586 1137.31092,315.0342 L1137.31092,315.0342 L1137.31092,315.0342 Z" id="Fill-9" fill="#FFFFFF"></path>
            <path d="M1238.77005,282.930811 C1236.4286,282.498032 1233.9207,282.28719 1231.31292,282.28719 C1222.99023,282.28719 1216.55402,285.405425 1212.02648,291.708475 C1208.08707,297.256935 1206.12291,304.270188 1206.12291,312.737138 L1206.12291,368.610128 L1182.46428,368.610128 L1182.46428,295.658978 C1182.46428,283.396882 1182.23125,272.20009 1181.77627,262.135184 L1202.38325,262.135184 L1203.24881,282.509129 L1203.90353,282.509129 C1206.41143,275.506972 1210.33974,269.85864 1215.73285,265.641811 C1221.01498,261.82447 1226.6966,259.926897 1232.8332,259.926897 C1235.01929,259.926897 1236.99455,260.093351 1238.74786,260.359677 L1238.77005,282.930811" id="Fill-10" fill="#FFFFFF"></path>
            <path d="M1344.57918,310.329106 C1344.57918,314.568129 1344.30176,318.141337 1343.71362,321.059827 L1272.74882,321.059827 C1273.00405,331.579707 1276.45519,339.636071 1283.03567,345.18453 C1289.0169,350.133757 1296.76255,352.619467 1306.25042,352.619467 C1316.7592,352.619467 1326.34694,350.954929 1334.96925,347.581465 L1338.67562,364.004906 C1328.59962,368.388189 1316.69262,370.585379 1302.97683,370.585379 C1286.46461,370.585379 1273.50341,365.724929 1264.07103,356.026221 C1254.67194,346.316416 1249.94465,333.255342 1249.94465,316.920676 C1249.94465,300.87453 1254.31684,287.502742 1263.1056,276.838603 C1272.29385,265.453163 1284.7113,259.760443 1300.33576,259.760443 C1315.6828,259.760443 1327.30128,265.453163 1335.18009,276.838603 C1341.43875,285.860398 1344.57918,297.046093 1344.57918,310.329106 L1344.57918,310.329106 L1344.57918,310.329106 Z M1322.01914,304.192509 C1322.1856,297.168159 1320.63203,291.131435 1317.42502,286.004658 C1313.33026,279.413088 1307.02721,276.1284 1298.58245,276.1284 C1290.8368,276.1284 1284.54485,279.33541 1279.75098,285.771623 C1275.81157,290.887303 1273.47012,297.046093 1272.74882,304.170316 L1322.01914,304.192509 L1322.01914,304.192509 L1322.01914,304.192509 Z" id="Fill-11" fill="#FFFFFF"></path>
            <path d="M529.954313,168.077694 L517.559053,168.077694 L510.778836,146.760511 L487.197881,146.760511 L480.728377,168.077694 L468.666026,168.077694 L492.036138,95.4927423 L506.462134,95.4927423 L529.954313,168.077694 L529.954313,168.077694 L529.954313,168.077694 Z M508.737002,137.816394 L502.600406,118.862855 C501.956784,116.920894 500.769414,112.404448 498.938422,105.19145 L498.716484,105.19145 C497.961893,108.309684 496.885492,112.837228 495.265342,118.862855 L489.239715,137.816394 L508.737002,137.816394 L508.737002,137.816394 L508.737002,137.816394 Z" id="Fill-12" fill="#FFFFFF"></path>
            <path d="M588.390691,115.744621 L568.571593,168.077694 L557.263832,168.077694 L538.088355,115.744621 L550.583486,115.744621 L559.527603,143.420338 C561.036784,148.047754 562.324027,152.464328 563.289459,156.658963 L563.61127,156.658963 C564.47683,152.897107 565.764072,148.480533 567.373126,143.420338 L576.206273,115.744621 L588.390691,115.744621" id="Fill-13" fill="#FFFFFF"></path>
            <path d="M630.58118,168.077694 L629.71562,162.052066 L629.393809,162.052066 C625.842795,166.90142 620.67163,169.265064 614.102254,169.265064 C604.736454,169.265064 598.056108,162.695688 598.056108,153.862539 C598.056108,140.945725 609.2529,134.265379 628.639219,134.265379 L628.639219,133.299947 C628.639219,126.40876 624.977235,122.957618 617.764237,122.957618 C612.593073,122.957618 608.06553,124.255958 604.092832,126.84154 L601.729189,119.195763 C606.578542,116.177401 612.60417,114.668219 619.717295,114.668219 C633.3887,114.668219 640.290984,121.881217 640.290984,136.318309 L640.290984,155.593659 C640.290984,160.875793 640.512923,164.970556 641.045575,168.08879 L630.58118,168.077694 L630.58118,168.077694 L630.58118,168.077694 Z M628.961029,142.011029 C616.033118,142.011029 609.574711,145.140361 609.574711,152.5642 C609.574711,158.057175 612.914884,160.74263 617.542299,160.74263 C623.468054,160.74263 628.961029,156.226183 628.961029,150.089587 L628.961029,142.011029 L628.961029,142.011029 L628.961029,142.011029 Z" id="Fill-14" fill="#FFFFFF"></path>
            <path d="M666.191195,107.122314 C662.31837,107.122314 659.300008,104.103952 659.300008,100.120158 C659.300008,96.1363636 662.418242,93.2289707 666.413133,93.2289707 C670.396927,93.2289707 673.626131,96.1363636 673.515162,100.120158 C673.515162,104.32589 670.507896,107.122314 666.191195,107.122314 L666.191195,107.122314 L666.191195,107.122314 Z M660.598347,115.744621 L672.227919,115.744621 L672.227919,168.077694 L660.598347,168.077694 L660.598347,115.744621 L660.598347,115.744621 Z" id="Fill-15" fill="#FFFFFF"></path>
            <polygon id="Fill-16" fill="#FFFFFF" points="692.890383 91.7308866 704.519955 91.7308866 704.519955 168.077694 692.890383 168.077694"></polygon>
            <path d="M753.945635,168.077694 L753.068978,162.052066 L752.758264,162.052066 C749.20725,166.90142 744.036086,169.265064 737.466709,169.265064 C728.100909,169.265064 721.420563,162.695688 721.420563,153.862539 C721.420563,140.945725 732.617355,134.265379 752.003674,134.265379 L752.003674,133.299947 C752.003674,126.40876 748.34169,122.957618 741.128693,122.957618 C735.957528,122.957618 731.429985,124.255958 727.457288,126.84154 L725.082547,119.184666 C729.931901,116.166304 735.957528,114.657123 743.070654,114.657123 C756.742059,114.657123 763.65544,121.87012 763.65544,136.307213 L763.65544,155.582562 C763.65544,160.864696 763.877378,164.959459 764.387836,168.077694 L753.945635,168.077694 L753.945635,168.077694 L753.945635,168.077694 Z M752.325485,142.011029 C739.397573,142.011029 732.939166,145.140361 732.939166,152.5642 C732.939166,158.057175 736.279339,160.74263 740.906754,160.74263 C746.832509,160.74263 752.325485,156.226183 752.325485,150.089587 L752.325485,142.011029 L752.325485,142.011029 L752.325485,142.011029 Z" id="Fill-17" fill="#FFFFFF"></path>
            <path d="M810.761863,169.265064 C803.338024,169.265064 797.856146,166.135733 794.294035,159.999136 L794.072096,159.999136 L793.406281,168.077694 L783.507829,168.077694 C783.818542,163.883058 783.929512,159.133576 783.929512,153.973509 L783.929512,91.7308866 L795.581277,91.7308866 L795.581277,123.401495 L795.792119,123.401495 C799.243261,117.586709 804.836108,114.679316 812.481886,114.679316 C825.087986,114.679316 833.921134,125.454425 833.921134,141.167663 C833.921134,157.413554 824.111458,169.265064 810.761863,169.265064 L810.761863,169.265064 L810.761863,169.265064 Z M808.398219,123.812081 C801.706777,123.812081 795.581277,129.626867 795.581277,137.705424 L795.581277,146.860383 C795.581277,154.073381 801.085349,159.999136 808.187378,159.999136 C816.89846,159.999136 822.091818,152.897107 822.091818,141.589346 C822.080721,131.036176 816.687618,123.812081 808.398219,123.812081 L808.398219,123.812081 L808.398219,123.812081 Z" id="Fill-18" fill="#FFFFFF"></path>
            <polygon id="Fill-19" fill="#FFFFFF" points="851.132457 91.7308866 862.750932 91.7308866 862.750932 168.077694 851.132457 168.077694"></polygon>
            <path d="M926.047761,144.707581 L891.136852,144.707581 C891.369887,154.61713 897.91707,160.209977 907.604681,160.209977 C912.786942,160.209977 917.525327,159.344418 921.719962,157.735364 L923.52876,165.813922 C918.579534,167.966724 912.764748,169.043126 905.98453,169.043126 C889.605477,169.043126 879.917866,158.700796 879.917866,142.665748 C879.917866,126.619602 889.838512,114.55725 904.686191,114.55725 C918.024688,114.55725 926.44725,124.466799 926.44725,139.436544 C926.480541,141.478377 926.380669,143.309369 926.047761,144.707581 L926.047761,144.707581 L926.047761,144.707581 Z M915.394718,136.418182 C915.394718,128.339624 911.288858,122.635808 903.853922,122.635808 C897.173576,122.635808 891.913636,128.450593 891.136852,136.418182 L915.394718,136.418182 L915.394718,136.418182 L915.394718,136.418182 Z" id="Fill-20" fill="#FFFFFF"></path>
            <path d="M996.535394,169.265064 C981.243839,169.265064 971.33429,157.846334 971.33429,142.343937 C971.33429,126.186822 981.454681,114.668219 997.412051,114.668219 C1012.47057,114.668219 1022.61316,125.543201 1022.61316,141.489474 C1022.61316,157.846334 1012.15986,169.265064 996.535394,169.265064 L996.535394,169.265064 L996.535394,169.265064 Z M996.979271,123.16846 C988.578903,123.16846 983.196897,131.025079 983.196897,142.011029 C983.196897,152.786138 988.689872,160.642757 996.868302,160.642757 C1005.04673,160.642757 1010.53971,152.242389 1010.53971,141.789091 C1010.53971,131.136048 1005.1577,123.16846 996.979271,123.16846 L996.979271,123.16846 L996.979271,123.16846 Z" id="Fill-21" fill="#FFFFFF"></path>
            <path d="M1085.1332,168.077694 L1073.52582,168.077694 L1073.52582,138.027235 C1073.52582,128.772404 1069.96371,124.133892 1062.96156,124.133892 C1056.07037,124.133892 1051.32089,130.059647 1051.32089,136.950834 L1051.32089,168.077694 L1039.71351,168.077694 L1039.71351,130.703268 C1039.71351,126.075853 1039.58035,121.11553 1039.26963,115.733524 L1049.50099,115.733524 L1050.04474,123.812081 L1050.37765,123.812081 C1053.47369,118.219234 1059.84332,114.657123 1066.95645,114.657123 C1077.9202,114.657123 1085.1332,123.057491 1085.1332,136.728896 L1085.1332,168.077694" id="Fill-22" fill="#FFFFFF"></path>
            <path d="M1161.22478,124.466799 L1148.43003,124.466799 L1148.43003,149.878745 C1148.43003,156.348249 1150.68271,159.577453 1155.19915,159.577453 C1157.24098,159.577453 1158.9832,159.355515 1160.37032,159.033704 L1160.69213,167.866852 C1158.42836,168.732412 1155.3989,169.165192 1151.65923,169.165192 C1142.48208,169.165192 1137.0224,164.104996 1137.0224,150.855274 L1137.0224,124.466799 L1129.39881,124.466799 L1129.39881,115.744621 L1137.0224,115.744621 L1137.0224,106.156882 L1148.43003,102.70574 L1148.43003,115.733524 L1161.22478,115.733524 L1161.22478,124.466799" id="Fill-23" fill="#FFFFFF"></path>
            <path d="M1222.81268,168.077694 L1211.17201,168.077694 L1211.17201,138.249174 C1211.17201,128.883373 1207.6099,124.144989 1200.61884,124.144989 C1194.59322,124.144989 1189.00037,128.239752 1189.00037,136.529151 L1189.00037,168.077694 L1177.3597,168.077694 L1177.3597,91.7308866 L1189.00037,91.7308866 L1189.00037,123.16846 L1189.22231,123.16846 C1192.87319,117.464643 1198.16642,114.657122 1204.94664,114.657122 C1216.03246,114.657122 1222.81268,123.268332 1222.81268,136.950834 L1222.81268,168.077694" id="Fill-24" fill="#FFFFFF"></path>
            <path d="M1282.23669,144.707581 L1247.33687,144.707581 C1247.55881,154.61713 1254.10599,160.209977 1263.8047,160.209977 C1268.99806,160.209977 1273.72535,159.344418 1277.89779,157.735364 L1279.71769,165.813922 C1274.77956,167.966724 1268.95367,169.043126 1262.16236,169.043126 C1245.7944,169.043126 1236.10679,158.700796 1236.10679,142.665748 C1236.10679,126.619602 1246.01634,114.55725 1260.86402,114.55725 C1274.21361,114.55725 1282.62508,124.466799 1282.62508,139.436544 C1282.66947,141.478377 1282.5585,143.309369 1282.23669,144.707581 L1282.23669,144.707581 L1282.23669,144.707581 Z M1271.57255,136.418182 C1271.57255,128.339624 1267.48888,122.635808 1260.05394,122.635808 C1253.3736,122.635808 1248.10256,128.450593 1247.33687,136.418182 L1271.57255,136.418182 L1271.57255,136.418182 L1271.57255,136.418182 Z" id="Fill-25" fill="#FFFFFF"></path>
        </g>
    </g>
</svg>