<svg enable-background="new 2723.74 890.845 696 227.669" height="180.56599" viewBox="2723.74 890.845 552.00122 180.56599" width="552.00122" xmlns="http://www.w3.org/2000/svg" xmlns:xlink="http://www.w3.org/1999/xlink"><defs><clipPath id="a"><use height="100%" overflow="visible" width="100%" xlink:href="#i"/></clipPath><linearGradient id="b" gradientTransform="matrix(12 0 0 -12 -31092.297 15690.352)" gradientUnits="userSpaceOnUse" x1="2825.5933" x2="2825.5933" y1="1229.6406" y2="1216.792"><stop offset="0" stop-color="#257cb0"/><stop offset=".2863" stop-color="#4a93b5"/><stop offset=".767" stop-color="#78bcbb"/><stop offset="1" stop-color="#89cfbd"/></linearGradient><clipPath id="c"><use height="100%" overflow="visible" width="100%" xlink:href="#j"/></clipPath><linearGradient id="d" gradientTransform="matrix(12 0 0 -12 -31092.297 15690.352)" gradientUnits="userSpaceOnUse" x1="2822.3535" x2="2830.5728" y1="1226.4512" y2="1226.4512"><stop offset="0" stop-color="#52c1ad"/><stop offset="1" stop-color="#dee89a"/></linearGradient><clipPath id="e"><use height="100%" overflow="visible" width="100%" xlink:href="#k"/></clipPath><linearGradient id="f" gradientTransform="matrix(12 0 0 -12 -31092.297 15690.352)" gradientUnits="userSpaceOnUse" x1="2826.4629" x2="2826.4629" y1="1223.2168" y2="1216.7461"><stop offset="0" stop-color="#ec413d"/><stop offset=".1668" stop-color="#da4452"/><stop offset=".5748" stop-color="#b0487a"/><stop offset=".8619" stop-color="#954a92"/><stop offset="1" stop-color="#8a4a9d"/></linearGradient><clipPath id="g"><use height="100%" overflow="visible" width="100%" xlink:href="#l"/></clipPath><linearGradient id="h" gradientTransform="matrix(12 0 0 -12 -31092.297 15690.352)" gradientUnits="userSpaceOnUse" x1="2831.1968" x2="2831.1968" y1="1224.9424" y2="1221.4912"><stop offset="0" stop-color="#f58879"/><stop offset=".1194" stop-color="#f69079"/><stop offset=".7128" stop-color="#fcb877"/><stop offset="1" stop-color="#fec874"/></linearGradient><path id="i" d="m2874.572 991.06l-31.383-18.119c0 0-57.173-33.013-60.534-34.954-3.361-1.94-6.71-.765-6.71 3.29 0 6.756 0 70.487 0 70.487 0 0 0 68.875 0 71.917 0 3.04 2.394 4.351 5.313 2.666 2.919-1.688 61.931-35.759 61.931-35.759l31.382-18.117c0 0 26.627-15.373 30.167-17.415 3.539-2.046 3.199-4.849.212-6.457-2.986-1.609-30.378-17.539-30.378-17.539z"/><path id="j" d="m2874.572 991.06l-31.383-18.119c0 0-57.173-33.013-60.534-34.954-3.361-1.94-6.71-.765-6.71 3.29 0 6.756 0 70.487 0 70.487 0 0 0 68.875 0 71.917 0 3.04 2.394 4.351 5.313 2.666 2.919-1.688 61.931-35.759 61.931-35.759l31.382-18.117c0 0 26.627-15.373 30.167-17.415 3.539-2.046 3.199-4.849.212-6.457-2.986-1.609-30.378-17.539-30.378-17.539z"/><path id="k" d="m2874.572 991.06l-31.383-18.119c0 0-57.173-33.013-60.534-34.954-3.361-1.94-6.71-.765-6.71 3.29 0 6.756 0 70.487 0 70.487 0 0 0 68.875 0 71.917 0 3.04 2.394 4.351 5.313 2.666 2.919-1.688 61.931-35.759 61.931-35.759l31.382-18.117c0 0 26.627-15.373 30.167-17.415 3.539-2.046 3.199-4.849.212-6.457-2.986-1.609-30.378-17.539-30.378-17.539z"/><path id="l" d="m2874.572 991.06l-31.383-18.119c0 0-57.173-33.013-60.534-34.954-3.361-1.94-6.71-.765-6.71 3.29 0 6.756 0 70.487 0 70.487 0 0 0 68.875 0 71.917 0 3.04 2.394 4.351 5.313 2.666 2.919-1.688 61.931-35.759 61.931-35.759l31.382-18.117c0 0 26.627-15.373 30.167-17.415 3.539-2.046 3.199-4.849.212-6.457-2.986-1.609-30.378-17.539-30.378-17.539z"/></defs><path d="m3275.7412 1047.0072c0 13.4748-10.9226 24.4038-24.3959 24.4038h-503.2039c-13.474.0008-24.4014-10.9266-24.4014-24.4038v-131.7608c0-13.47404 10.9266-24.40143 24.4014-24.40143h503.2023c13.4733 0 24.3959 10.92739 24.3959 24.40143v131.7608l0 0z"/><g transform="matrix(.79310405 0 0 .79310405 563.53154 184.31219)"><path clip-path="url(#a)" d="m2775.945 934.676v77.089 77.089l77.746-77.088z" fill="url(#b)"/><path clip-path="url(#c)" d="m2853.691 1011.766l20.881-20.706-31.384-18.119-67.243-38.825v.56z" fill="url(#d)"/><path clip-path="url(#e)" d="m2853.691 1011.766l-77.746 77.088v.561l67.243-38.826 31.382-18.119z" fill="url(#f)"/><path clip-path="url(#g)" d="m2874.572 991.06l-20.881 20.706 20.879 20.704 35.866-20.705z" fill="url(#h)"/></g><path d="m3153.3335 1010.6505c-2.3158 0-4.4287-.4275-6.3424-1.2809-1.9138-.8549-3.5214-2.1691-4.8197-3.9417h-.3886c.2585 2.0764.3886 4.0456.3886 5.9039v14.6335h-5.3828v-51.52558h4.3787l.7447 4.86725h.2586c1.3855-1.9486 2.9979-3.35242 4.8363-4.21769 1.8369-.86607 3.9481-1.29832 6.325-1.29832 4.7166 0 8.357 1.61238 10.9195 4.83481 2.5625 3.2223 3.845 7.7446 3.845 13.562 0 5.8405-1.3039 10.37623-3.9077 13.61293-2.6061 3.2343-6.2242 4.8498-10.8552 4.8498zm-.7788-32.28413c-3.634 0-6.2624 1.0073-7.8835 3.0178-1.6219 2.0121-2.4554 5.2138-2.499 9.6053v1.1991c0 4.9982.8335 8.57193 2.499 10.72443 1.6656 2.1525 4.3383 3.2271 8.0136 3.2271 3.074 0 5.4803-1.242 7.222-3.7299 1.7393-2.48643 2.6101-5.91503 2.6101-10.28743 0-4.4327-.8708-7.8367-2.6101-10.2041-1.7417-2.369-4.194-3.5523-7.3521-3.5523z" fill="#f9f9f9"/><path d="m3180.5679 1010.001h-5.3851v-50.48591h5.3851z" fill="#f9f9f9"/><path d="m3211.5339 1010.001l-1.0723-5.0616h-.2585c-1.7742 2.2302-3.542 3.7394-5.3051 4.5262-1.7631.7907-3.964 1.1849-6.6018 1.1849-3.5254 0-6.2885-.9089-8.2903-2.7259-2.0018-1.817-3.0011-4.4001-3.0011-7.7534 0-7.18073 5.7436-10.94483 17.2294-11.29223l6.0363-.1951v-2.2056c0-2.791-.6012-4.8522-1.802-6.1807-1.1991-1.3316-3.1224-1.997-5.7587-1.997-2.9646 0-6.3179.9089-10.0589 2.7251l-1.6552-4.1202c1.7535-.95171 3.6712-1.69802 5.7611-2.23813 2.0874-.54089 4.1788-.81134 6.2782-.81134 4.2391 0 7.3806.93983 9.426 2.82187 2.0423 1.882 3.0646 4.8998 3.0646 9.0541v24.26903zm-12.167-3.7943c3.3508 0 5.9839-.92 7.8993-2.7576 1.913-1.8384 2.8718-4.41283 2.8718-7.72403v-3.2121l-5.3883.2253c-4.282.1546-7.368.8168-9.2635 1.9994-1.8915 1.1785-2.8385 3.0122-2.8385 5.50013 0 1.9455.5885 3.4286 1.7686 4.443 1.1809 1.0168 2.829 1.5259 4.9506 1.5259z" fill="#f9f9f9"/><path d="m3218.652 974.44052h5.773l7.7875 20.27965c1.7083 4.6294 2.7695 7.97073 3.1819 10.02723h.2594c.2807-1.1056.8716-2.9908 1.7678-5.66513.8978-2.672 3.8354-10.8846 8.8082-24.64175h5.7778l-15.2839 40.49358c-1.5133 4.002-3.2827 6.8413-5.3067 8.5203-2.0216 1.675-4.5048 2.5117-7.4433 2.5117-1.6449 0-3.2668-.1832-4.8696-.5504v-4.3145c1.1888.2594 2.5212.3895 3.9917.3895 3.6998 0 6.3361-2.0764 7.9167-6.2299l1.978-5.0608z" fill="#f9f9f9"/><path d="m3053.561 977.74537c1.7092 1.4149 5.2797 4.3875 5.2797 10.0439 0 5.501-3.124 8.1095-6.2488 10.5594-.9676.966-2.0827 2.01053-2.0827 3.64903 0 1.6338 1.1143 2.5269 1.9351 3.197l2.6792 2.078c3.2715 2.7536 6.2441 5.2836 6.2441 10.4182 0 6.9912-6.7692 14.0554-19.5596 14.0554-10.787 0-15.9905-5.1314-15.9905-10.6379 0-2.6768 1.3324-6.4678 5.727-9.0739 4.6087-2.8267 10.8599-3.1947 14.206-3.4231-1.0445-1.3379-2.2317-2.7512-2.2317-5.0528 0-1.2627.3735-2.0074.7439-2.9044-.8209.076-1.6378.1499-2.3825.1499-7.8819 0-12.3439-5.87613-12.3439-11.67533 0-3.4222 1.564-7.218 4.7587-9.9669 4.2415-3.49521 9.2983-4.09242 13.3186-4.09242h15.318l-4.761 2.67752h-4.6096l0 0zm-5.2836 33.02653c-.5941-.078-.9676-.078-1.7076-.078-.6694 0-4.692.1515-7.812 1.1952-1.6362.5909-6.3972 2.3754-6.3972 7.659 0 5.2789 5.1353 9.0779 13.0941 9.0779 7.1356 0 10.9338-3.4286 10.9338-8.0365 0-3.7998-2.4555-5.8-8.1111-9.8178zm2.1588-14.13553c1.7084-1.7124 1.8551-4.0901 1.8551-5.4304 0-5.3543-3.1962-13.685-9.369-13.685-1.9359 0-4.0162.966-5.2067 2.4554-1.2626 1.5616-1.6377 3.5682-1.6377 5.5042 0 4.9822 2.9003 13.2392 9.3007 13.2392 1.859.0008 3.8632-.8914 5.0576-2.0834z" fill="#f9f9f9"/><path d="m3006.7346 1009.5814c-11.8054 0-18.1177-9.2087-18.1177-17.52843 0-9.729 7.9445-18.04232 19.236-18.04232 10.9107 0 17.7433 8.53622 17.7433 17.52442.0008 8.75983-6.7541 18.04633-18.8616 18.04633zm9.2809-6.0149c1.7853-2.3785 2.231-5.34713 2.231-8.24593 0-6.5368-3.1193-19.00991-12.328-19.00991-2.4499 0-4.8998.96681-6.6819 2.52921-2.8964 2.595-3.4191 5.8642-3.4191 9.0612 0 7.3465 3.6388 19.44773 12.627 19.44773 2.8956-.0008 5.8666-1.4085 7.571-3.7823z" fill="#f9f9f9"/><path d="m2966.4854 1009.5814c-11.8078 0-18.1217-9.2087-18.1217-17.52843 0-9.729 7.9477-18.04232 19.236-18.04232 10.9147 0 17.7457 8.53622 17.7457 17.52442.0008 8.75983-6.7549 18.04633-18.86 18.04633zm9.2832-6.0149c1.7821-2.3785 2.2287-5.34713 2.2287-8.24593 0-6.5368-3.1209-19.00991-12.3296-19.00991-2.4484 0-4.9006.96681-6.6811 2.52921-2.8965 2.595-3.4159 5.8642-3.4159 9.0612 0 7.3465 3.6363 19.44773 12.6254 19.44773 2.8956-.0008 5.865-1.4085 7.5725-3.7823z" fill="#f9f9f9"/><path d="m2942.6914 1008.4171l-10.6775 2.4634c-4.332.6734-8.2126 1.2658-12.3177 1.2658-20.6088 0-28.4455-15.15623-28.4455-27.02823 0-14.48207 11.1225-27.91726 30.1633-27.91726 4.033 0 7.912.59562 11.4199 1.56718 5.5994 1.56876 8.2118 3.5079 9.8559 4.62855l-6.1989 5.89832-2.6116.59483 1.8661-2.98763c-2.5371-2.46179-7.1704-7.015-15.9771-7.015-11.7966 0-20.6833 8.96287-20.6833 22.02691 0 14.0324 10.1557 27.24713 26.4278 27.24713 4.7832 0 7.2418-.9692 9.4831-1.867v-12.01633l-11.2715.5964 5.9704-3.2137h15.8288l-1.9391 1.8662c-.5267.4497-.5988.6012-.7479 1.192-.078.6742-.1475 2.8409-.1475 3.5865v9.11193l0 0z" fill="#f9f9f9"/><path d="m3077.1583 1006.267c-2.465-.2244-2.9813-.6709-2.9813-3.5856v-.8225-41.43333c.016-.161.025-.32596.04-.48141.3014-2.61169 1.0469-3.05979 3.3636-4.40569h-10.68l-5.6016 2.68862h5.7079v.0333-.027 43.62621 2.4658c0 1.491-.2943 1.7171-2.0137 3.9544h13.2163l2.7623-1.6377c-1.2665-.1547-2.5387-.2268-3.8092-.3752z" fill="#f9f9f9"/><path d="m3107.5381 1006.9531c-.8129.4465-1.629.9667-2.4412 1.3355-2.4507 1.1112-4.9711 1.4086-7.1998 1.4086-2.3666 0-6.0767-.1523-9.8622-2.8925-5.2599-3.7109-7.5583-10.08673-7.5583-15.64633 0-11.4905 9.3412-17.12472 16.978-17.12472 2.6696 0 5.4169.66621 7.6408 2.07794 3.7037 2.44198 4.6682 5.63028 5.1837 7.33618l-17.4198 7.046-5.7103.4449c1.8511 9.41653 8.2269 14.89853 15.2736 14.89853 3.7807 0 6.5257-1.3317 9.0446-2.5903zm-6.9674-22.09833c1.4062-.5163 2.1477-.9636 2.1477-2.0002 0-2.9638-3.335-6.3758-7.3425-6.3758-2.9686 0-8.5259 2.2992-8.5259 10.3048 0 1.2611.1491 2.5943.2252 3.9338z" fill="#f9f9f9"/><path d="m3114.6951 974.54124v4.89183h-.5948v-4.89183h-1.6188v-.50759h3.8307v.50759z" fill="#f9f9f9"/><path d="m3121.3643 979.43307v-4.93783h-.027l-1.5061 4.93783h-.4655l-1.5196-4.93783h-.019v4.93783h-.5402v-5.39942h.9248l1.3753 4.36442h.019l1.3546-4.36442h.9375v5.39942z" fill="#f9f9f9"/><path d="m2906.0802 942.66401h-3.711c0-.51076-.3513-1.955-1.0548-4.3359h-5.3566c-.7265 2.34204-1.0897 3.78707-1.0897 4.3359h-3.4889c0-.30059.9025-2.77507 2.7069-7.41949 1.8043-4.64521 2.7068-7.20376 2.7068-7.67407h4.3827c0 .44017.8169 2.96145 2.4523 7.56462 1.6338 4.60239 2.4523 7.11097 2.4523 7.52894zm-5.3567-6.55104c-1.3221-3.98773-1.9827-6.14418-1.9827-6.46856h-.1856c0 .30138-.6845 2.45783-2.0518 6.46856z" fill="#f9f9fa"/><path d="m2921.0294 942.66401h-2.8631c0-.31724-1.0636-1.9899-3.1883-5.01956-2.2254-3.19224-3.4936-5.37486-3.8013-6.54945h-.1856c.1935 1.69169.2902 3.22238.2902 4.59128 0 1.909.054 4.23597.1618 6.97932h-2.8528c.1158-2.39597.1737-5.0267.1737-7.89456 0-2.82107-.058-5.22101-.1737-7.1998h3.4429c0 .41003.9541 2.04541 2.8631 4.90376 2.0319 3.0368 3.1994 5.09728 3.5008 6.17987h.1737c-.1856-1.72342-.2784-3.26918-.2784-4.63728 0-2.0938-.054-4.2439-.1618-6.44556h2.8988c-.1087 1.91694-.1618 4.31687-.1618 7.1998 0 2.90276.052 5.53349.1618 7.89218z" fill="#f9f9fa"/><path d="m2937.8313 934.59418c0 2.19531-.7035 4.11224-2.1097 5.75-1.4069 1.63935-3.3778 2.45704-5.9133 2.45704-1.1437 0-2.7212-.0468-4.7301-.1388.1-2.3341.1515-4.96641.1515-7.89455 0-2.81235-.051-5.21228-.1515-7.1998h2.0287c.3324 0 .8272-.0119 1.4839-.0341.6559-.023 1.0858-.0341 1.2865-.0341 2.7901 0 4.8117.69555 6.0696 2.08666 1.2563 1.3911 1.8844 3.05979 1.8844 5.00766zm-3.1645.49886c0-1.4839-.433-2.73383-1.2983-3.75138-.8661-1.01597-2.1882-1.52356-3.9655-1.52356-.3323 0-.7884.0341-1.3689.10469.077 1.54656.1158 3.16132.1158 4.84587 0 1.84793.039 3.67921.1158 5.49542.502.10072 1.0048.15148 1.5061.15148 1.6623 0 2.8916-.5171 3.6919-1.54893.801-1.03262 1.2031-2.28969 1.2031-3.77359z" fill="#f9f9fa"/><path d="m2953.3262 942.66401h-3.4318c-.897-2.73542-1.5846-4.42473-2.0636-5.06556-.4791-.64241-1.2524-.96282-2.3183-.96282-.4489 0-.8772.004-1.2864.0119 0 1.98673.034 3.99169.1047 6.01649h-3.2224c.1-2.33411.1507-4.96642.1507-7.89456 0-2.81235-.051-5.21307-.1507-7.1998h2.005c.2316 0 .7161-.0119 1.4545-.0341.7384-.023 1.4205-.0341 2.0462-.0341 3.5476 0 5.3218 1.21265 5.3218 3.64034 0 1.92407-1.012 3.26442-3.0368 4.02342v.17369c.7804.21572 1.4648.82562 2.0517 1.82493.5853.99931 1.3776 2.83297 2.3754 5.50018zm-4.3478-10.66646c0-1.53783-.9898-2.30714-2.9678-2.30714-.7265 0-1.3681.0539-1.9241.1618.085 1.19758.1269 2.75921.1269 4.68407.4251.0167.7844.0222 1.0778.0222 2.4587.002 3.6872-.8518 3.6872-2.56094z" fill="#f9f9fa"/><path d="m2969.9441 934.83845c0 2.37218-.7265 4.33987-2.1803 5.90149-1.4537 1.56003-3.2509 2.34204-5.3907 2.34204-2.0407 0-3.7498-.71697-5.1242-2.1509-1.3761-1.43314-2.0637-3.25569-2.0637-5.46528 0-2.37218.7265-4.33987 2.1802-5.9007 1.453-1.56083 3.2494-2.34203 5.3908-2.34203 2.0406 0 3.7482.71458 5.1242 2.14455 1.3761 1.42917 2.0637 3.25173 2.0637 5.47083zm-3.1994.33548c0-1.61555-.4132-2.92576-1.2396-3.93062-.8272-1.00486-1.848-1.5061-3.0606-1.5061-1.1294 0-2.0875.506-2.875 1.51879-.7884 1.012-1.1841 2.29128-1.1841 3.83783 0 1.60683.4156 2.91466 1.2467 3.92428.8312 1.00883 1.8488 1.51324 3.0551 1.51324 1.1278 0 2.0874-.50838 2.875-1.52514.7875-1.01596 1.1825-2.29445 1.1825-3.83228z" fill="#f9f9fa"/><path d="m2976.4991 942.66401h-3.2811c.1007-2.39597.1507-5.02669.1507-7.89456 0-2.82107-.05-5.221-.1507-7.1998h3.2811c-.1 1.94787-.1507 4.34701-.1507 7.1998-.0008 2.91228.05 5.54539.1507 7.89456z" fill="#f9f9fa"/><path d="m2993.3026 934.59418c0 2.19531-.7043 4.11224-2.1105 5.75-1.4069 1.63935-3.3778 2.45704-5.9134 2.45704-1.1436 0-2.7211-.0468-4.73-.1388.1-2.3341.1507-4.96641.1507-7.89455 0-2.81235-.051-5.21228-.1507-7.1998h2.0287c.3323 0 .8264-.0119 1.4839-.0341.6567-.023 1.0858-.0341 1.2864-.0341 2.7902 0 4.8126.69555 6.0697 2.08666 1.257 1.3911 1.8852 3.05979 1.8852 5.00766zm-3.1645.49886c0-1.4839-.4322-2.73383-1.2983-3.75138-.8653-1.01597-2.1874-1.52356-3.9655-1.52356-.3323 0-.7884.0341-1.3681.10469.077 1.54656.1157 3.16132.1157 4.84587 0 1.84793.039 3.67921.1158 5.49542.5021.10072 1.0049.15148 1.5061.15148 1.6624 0 2.8917-.5171 3.6919-1.54893.8003-1.03262 1.2024-2.28969 1.2024-3.77359z" fill="#f9f9fa"/><path d="m3015.5944 942.66401h-3.711c0-.51076-.3513-1.955-1.0564-4.3359h-5.3558c-.7265 2.34204-1.0898 3.78707-1.0898 4.3359h-3.488c0-.30059.9025-2.77507 2.7068-7.41949 1.8036-4.64521 2.7069-7.20376 2.7069-7.67407h4.3819c0 .44017.8177 2.96145 2.4523 7.56462 1.6346 4.60318 2.4531 7.11097 2.4531 7.52894zm-5.3551-6.55104c-1.3229-3.98773-1.9843-6.14418-1.9843-6.46856h-.1848c0 .30138-.6829 2.45783-2.051 6.46856z" fill="#f9f9fa"/><path d="m3029.1168 931.52169c0 1.84793-.6861 3.21207-2.0581 4.09242-1.3721.88034-3.0543 1.3221-5.0481 1.3221-.3641 0-.6218-.008-.7765-.023 0 1.45376.042 3.3699.1269 5.75001h-3.2573c.1-2.23259.1499-4.8649.1499-7.89456 0-2.78221-.05-5.18294-.1499-7.1998h2.0169c.2855 0 .8343-.0119 1.6449-.0341.8113-.023 1.5148-.0341 2.1104-.0341 1.4681 0 2.7085.33231 3.7205.99693 1.0128.66542 1.5204 1.67187 1.5204 3.02411zm-2.9892.63845c0-1.65283-1.0985-2.48083-3.293-2.48083-.5488 0-1.1294.0587-1.7385.17369.086 1.4609.1277 3.11452.1277 4.96245.1927.0167.4172.0222.6726.0222 2.8194.00079 4.2312-.89224 4.2312-2.67752z" fill="#f9f9fa"/><path d="m3043.0231 931.52169c0 1.84793-.6869 3.21207-2.0573 4.09242-1.3721.88034-3.0559 1.3221-5.0497 1.3221-.3641 0-.6218-.008-.7773-.023 0 1.45376.043 3.3699.1277 5.75001h-3.2581c.1008-2.23259.1507-4.8649.1507-7.89456 0-2.78221-.05-5.18294-.1507-7.1998h2.0169c.2863 0 .8351-.0119 1.6465-.0341.8105-.023 1.5132-.0341 2.1096-.0341 1.4673 0 2.7085.33231 3.7205.99693 1.012.66542 1.5212 1.67187 1.5212 3.02411zm-2.9916.63845c0-1.65283-1.0977-2.48083-3.2922-2.48083-.5488 0-1.1286.0587-1.7385.17369.085 1.4609.1269 3.11452.1269 4.96245.1935.0167.418.0222.6726.0222 2.821.00079 4.2312-.89224 4.2312-2.67752z" fill="#f9f9fa"/><path d="m3065.7566 934.83845c0 2.37218-.7265 4.33987-2.1802 5.90149-1.4538 1.56162-3.251 2.34204-5.3908 2.34204-2.0406 0-3.7498-.71697-5.1242-2.1509-1.3745-1.43314-2.0637-3.25569-2.0637-5.46528 0-2.37218.7257-4.33987 2.1803-5.9007 1.4529-1.56162 3.2501-2.34203 5.3907-2.34203 2.0399 0 3.749.71458 5.1242 2.14455 1.3745 1.42917 2.0637 3.25173 2.0637 5.47083zm-3.201.33548c0-1.61555-.4132-2.92576-1.2396-3.93062-.8264-1.00486-1.8471-1.5061-3.0598-1.5061-1.1294 0-2.0882.506-2.875 1.51879-.7883 1.012-1.1833 2.29128-1.1833 3.83783 0 1.60683.4156 2.91466 1.2468 3.92428.8303 1.00883 1.8479 1.51324 3.0542 1.51324 1.1286 0 2.0875-.50838 2.875-1.52514.7884-1.01596 1.1817-2.29445 1.1817-3.83228z" fill="#f9f9fa"/><path d="m3081.4696 942.66401h-2.8631c0-.31724-1.062-1.9899-3.1883-5.01956-2.2255-3.19224-3.4936-5.37486-3.8021-6.54945h-.1856c.1935 1.69169.2902 3.22238.2902 4.59128 0 1.909.054 4.23597.1618 6.97932h-2.8528c.1158-2.39597.1745-5.0267.1745-7.89456 0-2.82107-.059-5.22101-.1745-7.1998h3.4429c0 .41003.9557 2.04541 2.8631 4.90376 2.0327 3.0368 3.1994 5.09728 3.5008 6.17987h.1745c-.1856-1.72342-.2792-3.26918-.2792-4.63728 0-2.0938-.054-4.2439-.1618-6.44556h2.8988c-.1095 1.91694-.1618 4.31687-.1618 7.1998.0008 2.90276.054 5.53349.1626 7.89218z" fill="#f9f9fa"/></svg>