<?xml version="1.0" encoding="UTF-8"?>
<svg width="704px" height="76px" viewBox="0 0 704 76" version="1.1" xmlns="http://www.w3.org/2000/svg" xmlns:xlink="http://www.w3.org/1999/xlink">
    <!-- Generator: Sketch 42 (36781) - http://www.bohemiancoding.com/sketch -->
    <title>Django Open Radio</title>
    <desc>Created with Sketch.</desc>
    <defs></defs>
    <g id="Page-1" stroke="none" stroke-width="1" fill="none" fill-rule="evenodd">
        <path d="M44.5983887,29.7172852 C44.5983887,38.5308058 42.0898688,45.2812266 37.0727539,49.96875 C32.055639,54.6562734 24.8108384,57 15.3381348,57 L0.177001953,57 L0.177001953,3.45996094 L16.986084,3.45996094 C25.7263621,3.45996094 32.5134036,5.76706677 37.3474121,10.3813477 C42.1814207,14.9956285 44.5983887,21.4408766 44.5983887,29.7172852 Z M32.8063965,30.0102539 C32.8063965,18.511173 27.7283223,12.7617188 17.5720215,12.7617188 L11.529541,12.7617188 L11.529541,47.625 L16.4001465,47.625 C27.3377012,47.625 32.8063965,41.7534767 32.8063965,30.0102539 Z M51.5197754,75.0175781 C48.6633158,75.0175781 46.2097271,74.7124054 44.1589355,74.1020508 L44.1589355,65.3129883 C45.8679285,65.7768578 47.6135165,66.0087891 49.395752,66.0087891 C51.2756442,66.0087891 52.6489214,65.483892 53.515625,64.434082 C54.3823286,63.3842721 54.8156738,61.8339946 54.8156738,59.7832031 L54.8156738,16.0576172 L65.9851074,16.0576172 L65.9851074,61.4311523 C65.9851074,65.7768772 64.7277958,69.1276738 62.2131348,71.4836426 C59.6984738,73.8396114 56.1340563,75.0175781 51.5197754,75.0175781 Z M54.3395996,5.47412109 C54.3395996,1.83640759 56.3659465,0.017578125 60.4187012,0.017578125 C64.4714558,0.017578125 66.4978027,1.83640759 66.4978027,5.47412109 C66.4978027,7.2075282 65.991216,8.55639166 64.9780273,9.52075195 C63.9648387,10.4851122 62.4450785,10.9672852 60.4187012,10.9672852 C56.3659465,10.9672852 54.3395996,9.13624878 54.3395996,5.47412109 Z M103.704834,57 L101.544189,51.4335938 L101.251221,51.4335938 C99.3713285,53.8017697 97.4365334,55.4435989 95.4467773,56.3591309 C93.4570213,57.2746628 90.8630531,57.7324219 87.6647949,57.7324219 C83.7341112,57.7324219 80.6396597,56.6093862 78.3813477,54.3632812 C76.1230356,52.1171763 74.9938965,48.9189661 74.9938965,44.7685547 C74.9938965,40.4228298 76.5136567,37.2185162 79.5532227,35.1555176 C82.5927886,33.092519 87.176483,31.951173 93.3044434,31.7314453 L100.408936,31.5117188 L100.408936,29.7172852 C100.408936,25.5668738 98.2849333,23.4916992 94.0368652,23.4916992 C90.7653645,23.4916992 86.9201881,24.4804589 82.5012207,26.4580078 L78.8024902,18.9140625 C83.5144279,16.4482299 88.738985,15.215332 94.4763184,15.215332 C99.9695099,15.215332 104.180894,16.4116091 107.110596,18.8041992 C110.040298,21.1967893 111.505127,24.8344482 111.505127,29.7172852 L111.505127,57 L103.704834,57 Z M100.408936,38.0302734 L96.0876465,38.1767578 C92.8405599,38.2744146 90.4235919,38.8603462 88.8366699,39.9345703 C87.2497479,41.0087944 86.4562988,42.6445203 86.4562988,44.8417969 C86.4562988,47.9912267 88.2629214,49.565918 91.8762207,49.565918 C94.4641243,49.565918 96.5331954,48.8212965 98.0834961,47.3320312 C99.6337968,45.842766 100.408936,43.8652467 100.408936,41.3994141 L100.408936,38.0302734 Z M160.797119,57 L149.627686,57 L149.627686,33.0864258 C149.627686,30.1323094 149.102788,27.9167554 148.052979,26.4396973 C147.003169,24.9626391 145.330822,24.2241211 143.035889,24.2241211 C139.910873,24.2241211 137.652595,25.2678118 136.260986,27.3552246 C134.869378,29.4426374 134.173584,32.9032961 134.173584,37.7373047 L134.173584,57 L123.00415,57 L123.00415,16.0576172 L131.536865,16.0576172 L133.03833,21.2944336 L133.660889,21.2944336 C134.906012,19.3168846 136.621083,17.8215383 138.806152,16.8083496 C140.991222,15.7951609 143.475328,15.2885742 146.258545,15.2885742 C151.019311,15.2885742 154.632556,16.5764031 157.098389,19.1520996 C159.564221,21.7277961 160.797119,25.4447999 160.797119,30.3032227 L160.797119,57 Z M207.928467,16.0576172 L207.928467,21.7338867 L201.519775,23.3818359 C202.691656,25.2128998 203.277588,27.2636605 203.277588,29.5341797 C203.277588,33.9287329 201.745621,37.3527709 198.681641,39.8063965 C195.61766,42.260022 191.363553,43.4868164 185.919189,43.4868164 L183.905029,43.3769531 L182.25708,43.1938477 C181.109613,44.0727583 180.535889,45.049311 180.535889,46.1235352 C180.535889,47.7348713 182.586649,48.5405273 186.688232,48.5405273 L193.64624,48.5405273 C198.13845,48.5405273 201.562488,49.5048732 203.918457,51.4335938 C206.274426,53.3623143 207.452393,56.1943173 207.452393,59.9296875 C207.452393,64.7148677 205.456563,68.4257681 201.464844,71.0625 C197.473125,73.6992319 191.741981,75.0175781 184.27124,75.0175781 C178.558321,75.0175781 174.194351,74.022715 171.179199,72.032959 C168.164047,70.0432029 166.656494,67.2539242 166.656494,63.6650391 C166.656494,61.1992064 167.425529,59.1362388 168.963623,57.4760742 C170.501717,55.8159097 172.759995,54.6318395 175.738525,53.9238281 C174.591059,53.4355444 173.590092,52.6359919 172.735596,51.5251465 C171.881099,50.4143011 171.453857,49.2363344 171.453857,47.9912109 C171.453857,46.4287031 171.905513,45.1286673 172.808838,44.0910645 C173.712163,43.0534616 175.018302,42.0341847 176.727295,41.0332031 C174.578847,40.1054641 172.875983,38.6162212 171.618652,36.5654297 C170.361322,34.5146382 169.732666,32.0976702 169.732666,29.3144531 C169.732666,24.8466573 171.185288,21.3921021 174.090576,18.9506836 C176.995864,16.5092651 181.146213,15.2885742 186.541748,15.2885742 C187.689215,15.2885742 189.050285,15.3923329 190.625,15.5998535 C192.199715,15.8073741 193.206785,15.9599604 193.64624,16.0576172 L207.928467,16.0576172 Z M176.324463,62.7861328 C176.324463,64.3242264 177.062981,65.5327104 178.540039,66.4116211 C180.017097,67.2905317 182.086168,67.7299805 184.747314,67.7299805 C188.751241,67.7299805 191.888416,67.1806696 194.158936,66.0820312 C196.429455,64.9833929 197.564697,63.4819431 197.564697,61.5776367 C197.564697,60.0395431 196.893317,58.977542 195.550537,58.3916016 C194.207757,57.8056611 192.132582,57.5126953 189.324951,57.5126953 L183.538818,57.5126953 C181.488027,57.5126953 179.772956,57.9948682 178.393555,58.9592285 C177.014153,59.9235888 176.324463,61.1992108 176.324463,62.7861328 Z M180.389404,29.4609375 C180.389404,31.6826283 180.895991,33.4404232 181.90918,34.734375 C182.922368,36.0283268 184.466542,36.675293 186.541748,36.675293 C188.641368,36.675293 190.179438,36.0283268 191.156006,34.734375 C192.132573,33.4404232 192.62085,31.6826283 192.62085,29.4609375 C192.62085,24.5292722 190.594503,22.0634766 186.541748,22.0634766 C182.440165,22.0634766 180.389404,24.5292722 180.389404,29.4609375 Z M223.565674,36.4555664 C223.565674,40.508321 224.23095,43.5722552 225.561523,45.6474609 C226.892096,47.7226666 229.058823,48.7602539 232.061768,48.7602539 C235.040298,48.7602539 237.182611,47.7287701 238.48877,45.6657715 C239.794928,43.6027729 240.447998,40.5327352 240.447998,36.4555664 C240.447998,32.4028118 239.788825,29.3632914 238.470459,27.3369141 C237.152093,25.3105367 234.99147,24.2973633 231.988525,24.2973633 C229.009995,24.2973633 226.861579,25.3044333 225.543213,27.3186035 C224.224847,29.3327737 223.565674,32.3783976 223.565674,36.4555664 Z M251.873779,36.4555664 C251.873779,43.1206388 250.115984,48.332989 246.600342,52.0927734 C243.084699,55.8525579 238.189729,57.7324219 231.915283,57.7324219 C227.984599,57.7324219 224.517837,56.8718348 221.514893,55.1506348 C218.511948,53.4294348 216.204842,50.9575356 214.593506,47.7348633 C212.98217,44.5121909 212.176514,40.7524629 212.176514,36.4555664 C212.176514,29.7660798 213.922102,24.5659365 217.41333,20.8549805 C220.904558,17.1440244 225.811736,15.2885742 232.13501,15.2885742 C236.065693,15.2885742 239.532456,16.1430579 242.5354,17.8520508 C245.538345,19.5610437 247.845451,22.0146324 249.456787,25.2128906 C251.068123,28.4111488 251.873779,32.1586699 251.873779,36.4555664 Z M330.059814,30.1567383 C330.059814,39.0190873 327.862571,45.8305426 323.468018,50.5913086 C319.073464,55.3520746 312.774699,57.7324219 304.571533,57.7324219 C296.368367,57.7324219 290.069602,55.3520746 285.675049,50.5913086 C281.280496,45.8305426 279.083252,38.9946735 279.083252,30.0834961 C279.083252,21.1723187 281.286599,14.3669669 285.693359,9.66723633 C290.10012,4.9675058 296.417195,2.61767578 304.644775,2.61767578 C312.872356,2.61767578 319.165017,4.98581616 323.522949,9.72216797 C327.880881,14.4585198 330.059814,21.2699751 330.059814,30.1567383 Z M290.985107,30.1567383 C290.985107,36.1382135 292.12035,40.642563 294.390869,43.6699219 C296.661388,46.6972808 300.054909,48.2109375 304.571533,48.2109375 C313.629196,48.2109375 318.157959,42.1929313 318.157959,30.1567383 C318.157959,18.0961311 313.653609,12.065918 304.644775,12.065918 C300.128151,12.065918 296.722424,13.5856782 294.42749,16.6252441 C292.132557,19.6648101 290.985107,24.1752631 290.985107,30.1567383 Z M362.762451,57.7324219 C357.952857,57.7324219 354.180922,55.9868339 351.446533,52.4956055 L350.860596,52.4956055 C351.251223,55.9135913 351.446533,57.8911106 351.446533,58.4282227 L351.446533,75.0175781 L340.2771,75.0175781 L340.2771,16.0576172 L349.359131,16.0576172 L350.933838,21.3676758 L351.446533,21.3676758 C354.058851,17.3149211 357.928441,15.2885742 363.05542,15.2885742 C367.889428,15.2885742 371.67357,17.1562313 374.407959,20.8916016 C377.142348,24.6269718 378.509521,29.8149082 378.509521,36.4555664 C378.509521,40.8257054 377.868659,44.6220542 376.586914,47.8447266 C375.305169,51.0673989 373.480236,53.5209877 371.112061,55.2055664 C368.743885,56.8901451 365.960709,57.7324219 362.762451,57.7324219 Z M359.466553,24.2241211 C356.70775,24.2241211 354.69361,25.0725013 353.424072,26.7692871 C352.154535,28.4660729 351.495362,31.2675586 351.446533,35.1738281 L351.446533,36.3823242 C351.446533,40.7768774 352.099603,43.92626 353.405762,45.8305664 C354.711921,47.7348728 356.780992,48.6870117 359.613037,48.6870117 C364.617945,48.6870117 367.120361,44.5610764 367.120361,36.309082 C367.120361,32.2807416 366.503912,29.2595316 365.270996,27.2453613 C364.03808,25.2311911 362.103285,24.2241211 359.466553,24.2241211 Z M404.693604,23.2353516 C402.325428,23.2353516 400.469977,23.9860765 399.127197,25.4875488 C397.784417,26.9890212 397.015382,29.1191268 396.820068,31.8779297 L412.493896,31.8779297 C412.445068,29.1191268 411.72486,26.9890212 410.333252,25.4875488 C408.941643,23.9860765 407.061779,23.2353516 404.693604,23.2353516 Z M406.268311,57.7324219 C399.676481,57.7324219 394.525165,55.9135924 390.814209,52.2758789 C387.103253,48.6381654 385.247803,43.4868497 385.247803,36.8217773 C385.247803,29.9613915 386.962873,24.6574894 390.393066,20.9099121 C393.823259,17.1623348 398.565644,15.2885742 404.620361,15.2885742 C410.406523,15.2885742 414.910873,16.936507 418.133545,20.2324219 C421.356217,23.5283368 422.967529,28.0815139 422.967529,33.8920898 L422.967529,39.3120117 L396.563721,39.3120117 C396.685792,42.4858557 397.625724,44.9638583 399.383545,46.7460938 C401.141366,48.5283292 403.607162,49.4194336 406.781006,49.4194336 C409.246839,49.4194336 411.578358,49.1630885 413.775635,48.6503906 C415.972911,48.1376927 418.26781,47.3198298 420.6604,46.1967773 L420.6604,54.8393555 C418.707266,55.8159229 416.619884,56.5422339 414.398193,57.0183105 C412.176503,57.4943871 409.466569,57.7324219 406.268311,57.7324219 Z M469.842529,57 L458.673096,57 L458.673096,33.0864258 C458.673096,30.1323094 458.148199,27.9167554 457.098389,26.4396973 C456.048579,24.9626391 454.376232,24.2241211 452.081299,24.2241211 C448.956283,24.2241211 446.698005,25.2678118 445.306396,27.3552246 C443.914788,29.4426374 443.218994,32.9032961 443.218994,37.7373047 L443.218994,57 L432.049561,57 L432.049561,16.0576172 L440.582275,16.0576172 L442.08374,21.2944336 L442.706299,21.2944336 C443.951422,19.3168846 445.666493,17.8215383 447.851562,16.8083496 C450.036632,15.7951609 452.520738,15.2885742 455.303955,15.2885742 C460.064721,15.2885742 463.677966,16.5764031 466.143799,19.1520996 C468.609631,21.7277961 469.842529,25.4447999 469.842529,30.3032227 L469.842529,57 Z M513.05542,27.2270508 L516.717529,27.2270508 C520.306414,27.2270508 522.955314,26.6289122 524.664307,25.4326172 C526.3733,24.2363221 527.227783,22.3564581 527.227783,19.7929688 C527.227783,17.2538936 526.354989,15.447271 524.609375,14.3730469 C522.863761,13.2988228 520.15993,12.7617188 516.497803,12.7617188 L513.05542,12.7617188 L513.05542,27.2270508 Z M513.05542,36.4555664 L513.05542,57 L501.702881,57 L501.702881,3.45996094 L517.303467,3.45996094 C524.578894,3.45996094 529.962141,4.78441058 533.453369,7.43334961 C536.944598,10.0822886 538.690186,14.1044652 538.690186,19.5 C538.690186,22.6494298 537.823495,25.4509155 536.090088,27.904541 C534.356681,30.3581666 531.903092,32.2807548 528.729248,33.6723633 C536.785929,45.7085563 542.0349,53.4843574 544.476318,57 L531.878662,57 L519.0979,36.4555664 L513.05542,36.4555664 Z M576.33667,57 L574.176025,51.4335938 L573.883057,51.4335938 C572.003164,53.8017697 570.068369,55.4435989 568.078613,56.3591309 C566.088857,57.2746628 563.494889,57.7324219 560.296631,57.7324219 C556.365947,57.7324219 553.271496,56.6093862 551.013184,54.3632812 C548.754872,52.1171763 547.625732,48.9189661 547.625732,44.7685547 C547.625732,40.4228298 549.145493,37.2185162 552.185059,35.1555176 C555.224625,33.092519 559.808319,31.951173 565.936279,31.7314453 L573.040771,31.5117188 L573.040771,29.7172852 C573.040771,25.5668738 570.916769,23.4916992 566.668701,23.4916992 C563.3972,23.4916992 559.552024,24.4804589 555.133057,26.4580078 L551.434326,18.9140625 C556.146264,16.4482299 561.370821,15.215332 567.108154,15.215332 C572.601346,15.215332 576.812729,16.4116091 579.742432,18.8041992 C582.672134,21.1967893 584.136963,24.8344482 584.136963,29.7172852 L584.136963,57 L576.33667,57 Z M573.040771,38.0302734 L568.719482,38.1767578 C565.472396,38.2744146 563.055428,38.8603462 561.468506,39.9345703 C559.881584,41.0087944 559.088135,42.6445203 559.088135,44.8417969 C559.088135,47.9912267 560.894757,49.565918 564.508057,49.565918 C567.09596,49.565918 569.165031,48.8212965 570.715332,47.3320312 C572.265633,45.842766 573.040771,43.8652467 573.040771,41.3994141 L573.040771,38.0302734 Z M608.599854,57.7324219 C603.790259,57.7324219 600.012221,55.8647648 597.265625,52.1293945 C594.519029,48.3940243 593.145752,43.2182948 593.145752,36.6020508 C593.145752,29.88815 594.543443,24.6574894 597.338867,20.9099121 C600.134291,17.1623348 603.985571,15.2885742 608.892822,15.2885742 C614.044215,15.2885742 617.97484,17.2905073 620.684814,21.2944336 L621.051025,21.2944336 C620.489499,18.2426605 620.20874,15.5205198 620.20874,13.1279297 L620.20874,0.017578125 L631.414795,0.017578125 L631.414795,57 L622.845459,57 L620.684814,51.6899414 L620.20874,51.6899414 C617.669665,55.7182819 613.800075,57.7324219 608.599854,57.7324219 Z M612.518311,48.8334961 C615.37477,48.8334961 617.468255,48.0034263 618.798828,46.3432617 C620.129401,44.6830972 620.855712,41.8633011 620.977783,37.8837891 L620.977783,36.675293 C620.977783,32.2807397 620.3003,29.1313572 618.945312,27.2270508 C617.590325,25.3227444 615.386978,24.3706055 612.335205,24.3706055 C609.844958,24.3706055 607.910163,25.4265031 606.530762,27.5383301 C605.15136,29.650157 604.46167,32.7201947 604.46167,36.7485352 C604.46167,40.7768756 605.157464,43.7980856 606.549072,45.8122559 C607.940681,47.8264261 609.930407,48.8334961 612.518311,48.8334961 Z M642.62085,5.47412109 C642.62085,1.83640759 644.647197,0.017578125 648.699951,0.017578125 C652.752706,0.017578125 654.779053,1.83640759 654.779053,5.47412109 C654.779053,7.2075282 654.272466,8.55639166 653.259277,9.52075195 C652.246089,10.4851122 650.726328,10.9672852 648.699951,10.9672852 C644.647197,10.9672852 642.62085,9.13624878 642.62085,5.47412109 Z M654.266357,57 L643.096924,57 L643.096924,16.0576172 L654.266357,16.0576172 L654.266357,57 Z M674.884033,36.4555664 C674.884033,40.508321 675.54931,43.5722552 676.879883,45.6474609 C678.210456,47.7226666 680.377182,48.7602539 683.380127,48.7602539 C686.358657,48.7602539 688.50097,47.7287701 689.807129,45.6657715 C691.113288,43.6027729 691.766357,40.5327352 691.766357,36.4555664 C691.766357,32.4028118 691.107184,29.3632914 689.788818,27.3369141 C688.470452,25.3105367 686.309829,24.2973633 683.306885,24.2973633 C680.328354,24.2973633 678.179938,25.3044333 676.861572,27.3186035 C675.543206,29.3327737 674.884033,32.3783976 674.884033,36.4555664 Z M703.192139,36.4555664 C703.192139,43.1206388 701.434344,48.332989 697.918701,52.0927734 C694.403059,55.8525579 689.508088,57.7324219 683.233643,57.7324219 C679.302959,57.7324219 675.836197,56.8718348 672.833252,55.1506348 C669.830307,53.4294348 667.523201,50.9575356 665.911865,47.7348633 C664.300529,44.5121909 663.494873,40.7524629 663.494873,36.4555664 C663.494873,29.7660798 665.240461,24.5659365 668.731689,20.8549805 C672.222918,17.1440244 677.130095,15.2885742 683.453369,15.2885742 C687.384053,15.2885742 690.850815,16.1430579 693.85376,17.8520508 C696.856704,19.5610437 699.16381,22.0146324 700.775146,25.2128906 C702.386483,28.4111488 703.192139,32.1586699 703.192139,36.4555664 Z" id="Django-Open-Radio" fill="#FFFFFF"></path>
    </g>
</svg>